<svg width="281" height="281" viewBox="0 0 281 281" fill="none" xmlns="http://www.w3.org/2000/svg">
<rect width="280.189" height="280.189" fill="#00FF51"/>
<g clip-path="url(#clip0_2026_777)">
<path d="M42.2504 100.076C44.5945 98.2009 48.3451 97.7321 51.1581 101.014C53.0334 103.358 53.971 109.922 54.4399 111.797C55.3775 118.36 56.784 127.737 56.784 134.769C56.784 135.238 56.784 135.707 56.784 136.176C56.784 138.989 57.7217 141.802 58.6593 144.615C66.1605 159.148 79.2877 177.433 79.2877 177.433L80.2253 178.37C80.6942 179.308 82.1006 179.308 82.5695 178.839C83.5071 178.37 83.976 176.964 83.5071 176.026L65.6917 146.959C63.8164 143.677 64.7541 138.989 68.5047 137.113C72.2553 135.238 76.4747 136.176 78.8189 139.458L97.5719 163.368C98.9784 165.243 101.323 167.118 102.729 168.525C119.607 180.714 121.951 192.904 123.357 198.999C123.357 198.999 123.357 200.405 123.357 202.749C123.357 204.625 123.357 206.5 122.889 208.375L121.951 228.535C121.951 229.941 120.544 231.348 119.138 231.348H87.7266C86.3201 231.348 84.9136 229.941 84.9136 228.535L84.4448 212.126L53.971 175.557C49.7516 170.869 46.4698 165.712 45.5322 159.148L45.0633 157.273L39.9062 106.64C39.9062 104.296 40.3751 101.483 42.2504 100.076ZM62.4099 131.019C62.4099 131.488 62.4099 131.956 62.4099 132.894C62.8788 132.425 63.8164 131.956 64.2852 131.488C65.2229 131.019 66.1605 130.55 67.0982 130.081C66.6294 124.924 64.7541 115.079 63.3476 109.922C62.8788 107.577 61.0034 105.702 58.6593 104.764C59.1281 106.64 59.597 108.515 60.0658 109.922C61.0034 115.547 62.4099 125.393 62.4099 131.019ZM72.7241 129.143C74.1306 129.143 76.0059 129.612 77.4124 130.081C76.9436 126.799 74.5994 119.767 73.6618 116.954C73.1929 114.61 71.7865 112.735 68.9735 111.797C69.9112 115.547 71.7865 122.58 72.7241 126.33V128.675C72.7241 128.675 72.7241 128.675 72.7241 129.143ZM229.781 100.545C227.906 102.889 226.968 109.453 226.499 111.328C225.562 117.892 224.155 127.268 224.155 134.301C224.155 134.769 224.155 135.238 224.155 135.707C224.155 138.52 223.217 141.333 222.28 144.146C215.247 158.68 201.651 177.433 201.651 177.433L200.714 178.37C200.245 179.308 198.838 179.308 198.37 178.839C197.432 178.37 196.963 176.964 197.432 176.026L215.247 146.959C217.123 143.677 216.185 138.989 212.434 137.113C208.684 135.238 204.464 136.176 202.12 139.458L183.367 163.368C181.961 165.243 179.617 167.118 178.21 168.525C161.332 180.714 158.988 192.904 157.582 198.999C157.582 198.999 157.582 200.405 157.582 202.749C157.582 204.625 157.582 206.5 158.051 208.375L158.988 228.535C158.988 229.941 160.395 231.348 161.801 231.348H193.213C194.619 231.348 196.026 229.941 196.026 228.535L196.494 212.126L226.499 176.026C230.719 171.338 234 166.181 234.938 159.617V157.742L240.095 107.109C240.095 104.764 239.626 101.952 237.751 100.545C236.345 98.2009 232.594 97.7321 229.781 100.545ZM213.372 129.612C214.31 130.081 215.247 130.55 216.185 131.019C217.123 131.488 217.592 131.956 218.06 132.425C218.06 131.956 218.06 131.488 218.06 130.55C218.06 124.924 219.467 114.61 220.405 108.984C220.405 107.109 220.873 105.233 221.811 103.827C218.998 104.764 217.592 106.64 217.123 108.984C216.185 114.61 214.31 124.455 213.372 129.612ZM203.996 130.081C205.402 129.612 206.809 129.143 208.684 129.143V128.675L209.153 126.33C209.621 122.58 211.966 115.547 212.903 111.797C210.559 112.735 209.153 114.61 208.215 116.954C206.34 119.767 204.464 126.799 203.996 130.081ZM117.731 90.6997H92.4148V142.271H117.731V90.6997ZM128.046 46.1611H153.362V142.271H128.046V46.1611V46.1611ZM146.33 127.268L137.891 135.707H146.33V127.268ZM134.609 61.1636L142.579 53.1935H134.609V61.1636ZM134.609 78.5102L146.33 66.7895V58.3506L134.609 70.0713V78.5102ZM134.609 95.8568L146.33 83.6673V75.6972L134.609 87.4179V95.8568ZM134.609 113.203L146.33 101.483V93.0438L134.609 104.764V113.203ZM134.609 130.081L146.33 118.36V109.922L134.609 121.642V130.081ZM163.676 69.6025H188.993V142.271H163.676V69.6025ZM170.24 135.707H181.961V76.6349H170.24V135.707Z" fill="#050506"/>
</g>
<defs>
<clipPath id="clip0_2026_777">
<path d="M40 120.076C40 92.0465 40 78.032 45.4548 67.3263C50.253 57.9093 57.9093 50.253 67.3263 45.4548C78.032 40 92.0465 40 120.076 40H160.113C188.142 40 202.157 40 212.863 45.4548C222.28 50.253 229.936 57.9093 234.734 67.3263C240.189 78.032 240.189 92.0465 240.189 120.076V160.113C240.189 188.142 240.189 202.157 234.734 212.863C229.936 222.28 222.28 229.936 212.863 234.734C202.157 240.189 188.142 240.189 160.113 240.189H120.076C92.0465 240.189 78.032 240.189 67.3263 234.734C57.9093 229.936 50.253 222.28 45.4548 212.863C40 202.157 40 188.142 40 160.113V120.076Z" fill="white"/>
</clipPath>
</defs>
</svg>
